<?xml version="1.0" encoding="UTF-8" standalone="no"?>
<svg
   xmlns:dc="http://purl.org/dc/elements/1.1/"
   xmlns:cc="http://creativecommons.org/ns#"
   xmlns:rdf="http://www.w3.org/1999/02/22-rdf-syntax-ns#"
   xmlns:svg="http://www.w3.org/2000/svg"
   xmlns="http://www.w3.org/2000/svg"
   xmlns:sodipodi="http://sodipodi.sourceforge.net/DTD/sodipodi-0.dtd"
   xmlns:inkscape="http://www.inkscape.org/namespaces/inkscape"
   width="416.82983"
   height="865.88928"
   version="1.1"
   id="svg8461"
   sodipodi:docname="woodlight_Ringe.svg"
   inkscape:version="0.92.2 (5c3e80d, 2017-08-06)">
  <metadata
     id="metadata8465">
    <rdf:RDF>
      <cc:Work
         rdf:about="">
        <dc:format>image/svg+xml</dc:format>
        <dc:type
           rdf:resource="http://purl.org/dc/dcmitype/StillImage" />
        <dc:title />
      </cc:Work>
    </rdf:RDF>
  </metadata>
  <sodipodi:namedview
     pagecolor="#ffffff"
     bordercolor="#666666"
     borderopacity="1"
     objecttolerance="10"
     gridtolerance="10"
     guidetolerance="10"
     inkscape:pageopacity="0"
     inkscape:pageshadow="2"
     inkscape:window-width="1366"
     inkscape:window-height="711"
     id="namedview8463"
     showgrid="false"
     inkscape:zoom="4"
     inkscape:cx="99.014947"
     inkscape:cy="753.90379"
     inkscape:window-x="-4"
     inkscape:window-y="-4"
     inkscape:window-maximized="1"
     inkscape:current-layer="g8457" />
  <desc
     id="desc4997">C:\Users\Andreas Reheis\Documents\Laser\woodlight\woodlight.dxf - scale = 1.000000, origin = (0.000000, 0.000000), method = file</desc>
  <defs
     id="defs5011">
    <marker
       id="DistanceX"
       orient="auto"
       refX="0"
       refY="0"
       style="overflow:visible">
      <path
         d="M 3,-3 -3,3 M 0,-5 V 5"
         style="stroke:#000000;stroke-width:0.5"
         id="path4999"
         inkscape:connector-curvature="0" />
    </marker>
    <pattern
       height="8"
       id="Hatch"
       patternUnits="userSpaceOnUse"
       width="8"
       x="0"
       y="0">
      <path
         d="M8 4 l-4,4"
         linecap="square"
         stroke="#000000"
         stroke-width="0.25"
         id="path5002" />
      <path
         d="M6 2 l-4,4"
         linecap="square"
         stroke="#000000"
         stroke-width="0.25"
         id="path5004" />
      <path
         d="M4 0 l-4,4"
         linecap="square"
         stroke="#000000"
         stroke-width="0.25"
         id="path5006" />
    </pattern>
    <symbol
       id="*MODEL_SPACE" />
    <symbol
       id="*PAPER_SPACE" />
  </defs>
  <g
     inkscape:groupmode="layer"
     inkscape:label="Ringe"
     id="g8457"
     style="display:inline"
     transform="translate(-317.16347,-439.65119)">
    <path
       style="fill:none;stroke:#000000"
       d="m 522.80235,727.38763 c 32.43486,1.10573 64.62647,-19.08249 76.20233,-49.82363 13.71806,-31.79759 2.35323,-72.04495 -25.37166,-92.51213 -26.34951,-20.43293 -64.79282,-21.66193 -92.33798,-2.64934 -27.33004,17.78258 -41.43841,54.47532 -32.18296,86.10457 8.31147,33.30685 39.52932,57.64257 73.69027,58.88053 z M 629.80703,565.21769 618.61888,553.52562 c 16.14954,-16.14955 37.79909,-36.29909 53.94863,-52.44864 -13.82585,-12.07587 -27.53449,-24.31306 -43.9034,-32.8887 -13.02327,-8.26561 -27.868,-13.44135 -42.28832,-18.64779 -15.08461,-3.61496 -30.04172,-8.03493 -45.6793,-8.15857 v 74.40073 h -15.11811 v -75.59056 c -18.31528,1.23742 -36.66175,2.27789 -54.30022,7.78857 -15.05351,3.36416 -29.21011,10.20118 -43.08833,16.71638 -13.22259,8.11027 -26.92426,15.56115 -38.06913,26.53116 l 52.60926,52.60926 -9.69207,9.93816 -54.44864,-52.69864 c -12.07587,13.82585 -24.31306,27.53449 -32.8887,43.9034 -8.26561,13.02327 -13.44135,27.868 -18.64779,42.28832 -3.61496,15.08461 -8.03493,30.04172 -8.15857,45.6793 h 74.40073 v 15.11811 h -75.59055 c 1.23741,18.31528 2.27788,36.66175 7.78856,54.30022 3.36416,15.05351 10.20118,29.21011 16.71638,43.08833 8.11027,13.22259 15.56115,26.92426 26.53116,38.06913 l 52.60926,-52.60926 10.43816,10.19208 c -16.14955,16.14954 -37.04909,37.79909 -53.19864,53.94863 13.82585,12.07587 27.53449,24.31306 43.9034,32.8887 13.02327,8.26561 27.868,13.44135 42.28832,18.64779 15.08461,3.61496 30.04172,8.03493 45.6793,8.15858 v -74.40073 h 15.11811 v 75.59055 c 18.31528,-1.23742 36.66175,-2.27789 54.30022,-7.78857 15.05351,-3.36416 29.21011,-10.20118 43.08833,-16.71638 13.22259,-8.11027 26.92426,-15.56115 38.06913,-26.53116 l -52.60926,-52.60926 10.44208,-11.68815 53.69863,54.44863 c 12.07587,-13.82585 24.31306,-27.53449 32.8887,-43.9034 8.26561,-13.02327 13.44135,-27.868 18.64779,-42.28832 3.61496,-15.08461 8.03493,-30.04172 8.15858,-45.6793 h -74.40074 v -15.11811 h 75.59056 c -1.23742,-18.31528 -2.27789,-36.66175 -7.78857,-54.30022 -3.36416,-15.05351 -10.20118,-29.21011 -16.71638,-43.08833 -8.11027,-13.22259 -15.56115,-26.92426 -26.53116,-38.06913 z"
       id="Ring1"
       inkscape:connector-curvature="0"
       sodipodi:nodetypes="ccccccccccccccccccccccccccccccccccccccccccccccccccccccc" />
    <path
       style="fill:none;stroke:#000000"
       d="m 680.53901,1112.283 v -15.1181 h -75.59055 c -0.35735,-15.673 -4.77732,-31.3092 -13.70649,-44.2833 18.20008,-18.2001 36.40016,-36.4002 54.60024,-54.60026 l -10.94113,-9.93909 c -16.14986,16.14985 -37.04972,36.54975 -53.19958,52.69955 -11.33523,-10.8298 -25.51706,-18.7609 -41.00501,-21.6211 v -77.21636 h -15.11811 v 75.59046 c -15.67307,0.3573 -31.30918,4.7775 -44.28336,13.7065 -18.20008,-18.2001 -36.40015,-36.40011 -54.60023,-54.60016 l -10.87661,10.56611 c 16.14986,16.14985 37.48722,37.42475 53.63708,53.57455 -10.82979,11.3352 -18.76092,25.517 -21.62111,41.005 h -77.2164 v 15.1181 h 75.59055 c 0.35736,15.6731 4.77732,31.3093 13.70649,44.2834 -18.20008,18.2001 -36.40016,36.4001 -54.60024,54.6002 l 10.94113,10.4391 c 16.14986,-16.1499 37.04972,-37.0497 53.19958,-53.1996 11.33512,10.83 25.51709,18.7608 41.00501,21.6212 v 77.2163 h 15.11811 v -75.5905 c 15.67303,-0.3574 31.30926,-4.7773 44.28336,-13.7065 18.20008,18.2001 36.40016,36.4001 54.60024,54.6002 l 10.9391,-9.4411 c -16.14986,-16.1499 -37.54972,-38.5497 -53.69958,-54.6996 10.8299,-11.3352 18.7609,-25.517 21.62111,-41.005 z m 42.73931,-79.3547 c -6.83632,-17.035 -13.49423,-34.16097 -24.18485,-49.23215 -7.85149,-13.27848 -18.7294,-24.63019 -29.21495,-35.81692 -12.83176,-11.4425 -25.94665,-22.4953 -41.2108,-30.5899 -13.02405,-8.26672 -27.86991,-13.44271 -42.29128,-18.64983 -16.62797,-4.36984 -33.33129,-8.26392 -50.60661,-8.54648 -15.35752,-1.45289 -30.93514,0.67512 -46.14865,2.58271 -16.79949,3.65539 -33.45013,7.7689 -48.97084,15.35996 -14.34326,5.67762 -27.25691,14.64579 -39.94623,23.25226 -13.30894,10.88379 -26.27728,22.10819 -36.66008,35.91812 -10.20234,11.57049 -17.637,25.42386 -25.03602,38.85313 -6.91723,15.7396 -13.37633,31.6281 -16.35786,48.6465 -3.83744,14.9412 -4.17252,30.6599 -4.66833,45.9845 0.98236,17.1646 2.44048,34.2537 7.51013,50.7708 3.36395,15.0549 10.20156,29.2124 16.71701,43.0919 8.6678,14.8477 17.7253,29.4122 29.74103,41.8275 9.83206,11.8868 22.35181,21.3971 34.45826,30.8058 14.46378,9.2943 29.14624,18.1594 45.48872,23.7665 14.1569,6.1276 29.6297,8.9174 44.6881,11.8044 17.10684,1.7148 34.21368,2.948 51.32053,0.5247 15.39572,-0.9674 30.44865,-5.5061 45.17645,-9.7702 16.02083,-6.2384 31.82297,-12.906 45.9651,-22.8316 13.27849,-7.8515 24.63022,-18.7294 35.81697,-29.215 11.4425,-12.8317 22.49529,-25.9466 30.58986,-41.2108 8.2667,-13.024 13.44274,-27.8699 18.64986,-42.2912 4.36984,-16.628 8.26391,-33.3313 8.54647,-50.6066 1.4529,-15.3575 -0.67512,-30.9351 -2.58271,-46.1486 -2.26309,-9.4265 -4.52619,-18.853 -6.78928,-28.2795 z"
       id="Ring2"
       inkscape:connector-curvature="0"
       sodipodi:nodetypes="ccccccccccccccccccccccccccccccccccccccccccccccccccccccccccccc" />
  </g>
</svg>
