<?xml version="1.0" encoding="UTF-8" standalone="no"?>
<svg
   xmlns:dc="http://purl.org/dc/elements/1.1/"
   xmlns:cc="http://creativecommons.org/ns#"
   xmlns:rdf="http://www.w3.org/1999/02/22-rdf-syntax-ns#"
   xmlns:svg="http://www.w3.org/2000/svg"
   xmlns="http://www.w3.org/2000/svg"
   xmlns:sodipodi="http://sodipodi.sourceforge.net/DTD/sodipodi-0.dtd"
   xmlns:inkscape="http://www.inkscape.org/namespaces/inkscape"
   width="1493.4928"
   height="969.27209"
   version="1.1"
   id="svg7295"
   sodipodi:docname="woodlight_Rippe_36_v_3.svg"
   inkscape:version="0.92.2 (5c3e80d, 2017-08-06)">
  <metadata
     id="metadata7299">
    <rdf:RDF>
      <cc:Work
         rdf:about="">
        <dc:format>image/svg+xml</dc:format>
        <dc:type
           rdf:resource="http://purl.org/dc/dcmitype/StillImage" />
        <dc:title />
      </cc:Work>
    </rdf:RDF>
  </metadata>
  <sodipodi:namedview
     pagecolor="#ffffff"
     bordercolor="#666666"
     borderopacity="1"
     objecttolerance="10"
     gridtolerance="10"
     guidetolerance="10"
     inkscape:pageopacity="0"
     inkscape:pageshadow="2"
     inkscape:window-width="1366"
     inkscape:window-height="711"
     id="namedview7297"
     showgrid="false"
     inkscape:zoom="0.20218175"
     inkscape:cx="201.22907"
     inkscape:cy="176.58679"
     inkscape:window-x="-4"
     inkscape:window-y="-4"
     inkscape:window-maximized="1"
     inkscape:current-layer="g7291"
     inkscape:measure-start="290.283,319.136"
     inkscape:measure-end="326.131,305.147" />
  <desc
     id="desc5711">C:\Users\Andreas Reheis\Documents\Laser\woodlight\woodlight_V_3.dxf - scale = 1.000000, origin = (0.000000, 0.000000), method = file</desc>
  <defs
     id="defs5725">
    <marker
       id="DistanceX"
       orient="auto"
       refX="0"
       refY="0"
       style="overflow:visible">
      <path
         d="M 3,-3 -3,3 M 0,-5 V 5"
         style="stroke:#000000;stroke-width:0.5"
         id="path5713"
         inkscape:connector-curvature="0" />
    </marker>
    <pattern
       height="8"
       id="Hatch"
       patternUnits="userSpaceOnUse"
       width="8"
       x="0"
       y="0">
      <path
         d="M8 4 l-4,4"
         linecap="square"
         stroke="#000000"
         stroke-width="0.25"
         id="path5716" />
      <path
         d="M6 2 l-4,4"
         linecap="square"
         stroke="#000000"
         stroke-width="0.25"
         id="path5718" />
      <path
         d="M4 0 l-4,4"
         linecap="square"
         stroke="#000000"
         stroke-width="0.25"
         id="path5720" />
    </pattern>
    <symbol
       id="*MODEL_SPACE" />
    <symbol
       id="*PAPER_SPACE" />
  </defs>
  <g
     inkscape:groupmode="layer"
     inkscape:label="PROFILEEDGES"
     id="g7291"
     transform="translate(774.46994,-154.03179)">
    <path
       id="path7289"
       style="fill:none;stroke:#000000"
       d="m -365.6728,206.04446 -85.12093,45.95884 -2.30989,4.97655 -2.07315,7.2692 -0.0989,3.34974 -0.33607,3.3343 -0.57158,3.3021 -0.80424,3.25326 -1.03282,3.18807 -1.25623,3.10683 -1.4736,3.0101 -3.36596,5.79589 -1.473,3.00984 -1.25623,3.10683 -1.03283,3.18806 -0.80423,3.25327 -0.57159,3.30209 -0.33636,3.33444 -0.19771,6.69946 -0.33576,3.33419 -0.57159,3.30208 -0.80423,3.25327 -1.03283,3.18807 -1.25623,3.10683 -1.47361,3.01009 -3.36594,5.7959 -1.47301,3.00983 -1.25623,3.10684 -1.03282,3.18807 -0.80423,3.25326 -0.57159,3.30209 -0.33606,3.3343 -0.0989,3.34974 -4.36152,-1.2439 0.0988,-3.34973 0.33607,-3.33431 0.57128,-3.30196 0.80381,-3.25308 1.0327,-3.18801 1.25623,-3.10684 1.47344,-3.01001 3.36636,-5.79608 1.47361,-3.0101 1.25624,-3.10683 1.03282,-3.18807 0.80422,-3.25326 0.5716,-3.30209 0.33575,-3.33418 0.19772,-6.69947 0.33636,-3.33444 0.57159,-3.30209 0.80422,-3.25326 1.03283,-3.18807 1.25624,-3.10683 1.473,-3.00984 3.36595,-5.79589 1.47361,-3.0101 1.25591,-3.10669 1.03251,-3.18794 0.80423,-3.25326 0.57159,-3.30209 0.33607,-3.33431 0.0988,-3.34973 2.07317,-7.26921 -1.14809,0.48928 -11.85237,6.39941 -93.12779,75.12459 -6.37441,7.40487 -2.9937,9.43651 -1.27596,7.45058 0.26349,3.34083 0.026,3.3511 -0.21162,3.3445 -0.44817,3.32109 -0.68248,3.28097 -0.91334,3.22433 -1.13961,3.15147 -2.72031,6.12552 -1.13962,3.15148 -0.91335,3.22433 -0.68247,3.28096 -0.44817,3.3211 -0.21163,3.34451 0.026,3.35109 0.52698,6.68164 0.026,3.3511 -0.21162,3.34451 -0.44817,3.32109 -0.68249,3.28096 -0.91334,3.22434 -1.13961,3.15147 -2.72031,6.12552 -1.13962,3.15148 -0.91334,3.22432 -0.68248,3.28098 -0.44818,3.32108 -0.21162,3.34451 0.026,3.3511 0.2635,3.34081 -4.47035,-0.76558 -0.26349,-3.34081 -0.026,-3.3511 0.21162,-3.34451 0.44818,-3.32109 0.68247,-3.28096 0.91335,-3.22433 1.13962,-3.15148 2.72031,-6.12553 1.13961,-3.15147 0.91335,-3.22433 0.68247,-3.28097 0.44817,-3.32108 0.21162,-3.34451 -0.026,-3.3511 -0.52699,-6.68165 -0.026,-3.35108 0.21162,-3.34451 0.44817,-3.32109 0.68249,-3.28097 0.91334,-3.22434 1.13963,-3.15147 2.7203,-6.12552 1.1396,-3.15147 0.91335,-3.22433 0.68248,-3.28097 0.44818,-3.32109 0.21162,-3.3445 -0.026,-3.3511 -0.26349,-3.34083 1.27597,-7.45058 -64.90477,75.39938 -1.87915,10.64847 0.35369,7.55078 0.97475,3.2063 0.74499,3.26734 0.5115,3.31193 0.27543,3.33986 0.038,3.35098 -0.19966,3.34524 -0.43629,3.32267 -1.34149,6.56677 -0.4363,3.32268 -0.19966,3.34524 0.038,3.35098 0.27544,3.33986 0.5115,3.31193 0.745,3.26733 1.94948,6.41262 0.74498,3.26734 0.5115,3.31193 0.27544,3.33985 0.038,3.35099 -0.19966,3.34524 -0.4363,3.32267 -1.34149,6.56677 -0.4363,3.32268 -0.19966,3.34524 0.038,3.35098 0.27544,3.33986 0.5115,3.31193 0.745,3.26734 0.97473,3.2063 -4.53046,0.21222 -0.97474,-3.2063 -0.74499,-3.26734 -0.51151,-3.31193 -0.27543,-3.33986 -0.038,-3.35098 0.19966,-3.34524 0.4363,-3.32268 1.34149,-6.56677 0.43629,-3.32267 0.19965,-3.34524 -0.038,-3.35098 -0.27544,-3.33986 -0.5115,-3.31193 -0.74499,-3.26735 -1.94948,-6.4126 -0.745,-3.26734 -0.5115,-3.31192 -0.27543,-3.33986 -0.038,-3.35099 0.19965,-3.34524 0.43631,-3.32267 1.34149,-6.56678 0.43628,-3.32266 0.19966,-3.34525 -0.038,-3.35098 -0.27544,-3.33986 -0.51149,-3.31193 -0.745,-3.26734 -0.97474,-3.2063 -0.3537,-7.55078 -55.64889,94.29348 -1.23439,14.12871 1.56929,7.39438 1.48008,3.00663 1.26324,3.10399 1.04,3.18573 0.81154,3.25146 0.57902,3.30079 0.34357,3.33354 0.10639,3.3495 -0.26273,6.69729 0.10629,3.34955 0.34359,3.33353 0.57903,3.30079 0.81155,3.25144 1.04,3.18575 1.26332,3.10394 2.96018,6.01327 1.26315,3.10403 1.04,3.18574 0.81155,3.25144 0.57901,3.3008 0.34357,3.33354 0.10644,3.34948 -0.26264,6.69725 0.10636,3.34953 0.34355,3.33353 0.57902,3.3008 0.81155,3.25144 1.04,3.18574 1.26324,3.10399 1.48007,3.00664 -4.43661,0.94157 -1.48008,-3.00664 -1.26324,-3.10399 -1.03998,-3.18574 -0.81155,-3.25145 -0.57901,-3.3008 -0.34357,-3.33354 -0.10637,-3.34951 0.26264,-6.69724 -0.10642,-3.34949 -0.34357,-3.33355 -0.57901,-3.30079 -0.81155,-3.25145 -1.03999,-3.18574 -1.26324,-3.10399 -2.96014,-6.01329 -1.26324,-3.10399 -1.03998,-3.18574 -0.81155,-3.25144 -0.57901,-3.3008 -0.34357,-3.33354 -0.10638,-3.34951 0.26263,-6.69724 -0.1064,-3.3495 -0.34357,-3.33354 -0.57901,-3.3008 -0.81155,-3.25145 -1.03999,-3.18574 -1.26324,-3.10399 -1.48019,-3.00659 -1.56941,-7.39431 -35.55404,94.48232 1.33565,7.02741 2.58311,7.10401 1.88412,2.77139 1.68292,2.89799 1.47324,3.00999 1.25619,3.10684 1.03287,3.18805 0.80428,3.25323 0.57151,3.30211 0.67188,6.66866 0.57141,3.30216 0.80417,3.25327 1.03276,3.18809 1.25619,3.10684 1.47325,3.01 1.68302,2.89794 3.76824,5.54278 1.68281,2.89803 1.47325,3.00999 1.25619,3.10685 1.0328,3.18808 0.80418,3.25327 0.57155,3.30208 0.67204,6.66861 0.57143,3.30214 0.80414,3.25328 1.03277,3.18809 1.25656,3.10669 1.47362,3.00984 1.68291,2.89798 1.88412,2.77139 -4.2624,1.54987 -1.88412,-2.77139 -1.68291,-2.89798 -1.47324,-3.01 -1.25619,-3.10685 -1.03275,-3.1881 -0.80416,-3.25328 -0.57184,-3.30196 -0.672,-6.66862 -0.57119,-3.30224 -0.80417,-3.25328 -1.03275,-3.18809 -1.2562,-3.10685 -1.47323,-3.01 -1.68325,-2.89784 -3.76823,-5.54279 -1.68258,-2.89812 -1.47323,-3.01 -1.2562,-3.10684 -1.03274,-3.1881 -0.80416,-3.25328 -0.57188,-3.30196 -0.67199,-6.66861 -0.57117,-3.30226 -0.80416,-3.25328 -1.03276,-3.18809 -1.25619,-3.10684 -1.47322,-3.01001 -1.68292,-2.89798 -1.88411,-2.77139 -2.58312,-7.10401 -19.93295,105.45121 -0.0477,7.21963 1.26036,5.82969 3.20439,6.84625 2.12302,2.59293 1.93387,2.73691 1.73498,2.86711 1.52738,2.98289 1.31198,3.08371 1.09018,3.16891 0.86248,3.23836 1.26213,6.58248 0.86312,3.23809 1.09018,3.16892 1.31199,3.08369 1.52737,2.9829 1.73499,2.86712 1.93358,2.73702 4.24604,5.18587 1.93414,2.73679 1.73499,2.86711 1.52738,2.9829 1.31198,3.08369 1.09018,3.16892 0.86256,3.23833 1.26215,6.58248 0.86301,3.23812 1.09018,3.16892 1.31199,3.0837 1.52737,2.98289 1.73499,2.86711 1.93387,2.73691 2.12301,2.59293 -4.10775,1.92264 -2.12301,-2.59293 -1.93388,-2.73692 -1.73498,-2.86711 -1.52742,-2.98287 -1.31199,-3.0837 -1.09022,-3.1689 -0.86294,-3.23816 -1.26213,-6.58248 -0.86266,-3.23828 -1.09021,-3.1689 -1.31199,-3.08371 -1.52743,-2.98287 -1.73497,-2.86711 -1.93397,-2.73687 -4.24604,-5.18587 -1.93377,-2.73695 -1.73499,-2.86711 -1.52741,-2.98287 -1.31199,-3.08371 -1.09023,-3.16889 -0.86284,-3.2382 -1.26213,-6.58248 -0.86276,-3.23825 -1.09021,-3.1689 -1.31199,-3.0837 -1.52742,-2.98287 -1.73499,-2.86711 -1.93386,-2.73691 -2.12302,-2.59294 -3.20439,-6.84625 -1.4536,18.07122 -0.86507,18.10895 -0.27562,18.12748 0.31414,18.12687 0.90354,18.10706 1.492,18.06809 2.07888,18.01002 2.66355,17.93285 3.24541,17.83675 3.82384,17.72175 4.39821,17.58799 4.96794,17.43564 29.04238,68.14842 4.11282,5.3687 4.70061,4.8623 5.22657,4.292 5.68368,3.6652 6.0661,2.9902 6.36857,2.2757 6.58735,1.5314 6.71937,0.7669 6.76296,-0.01 6.71762,-0.7822 6.58383,-1.5463 6.36342,-2.2902 34.76958,-14.8176 21.92998,51.4591 51.00032,-21.7345 -7.4088,-17.3848 78.23156,-33.3395 -22.6977,-53.26054 -3.01888,-6.44435 -3.46514,-6.2157 -3.89427,-5.9563 -4.30402,-5.66732 -4.69242,-5.35015 -5.05753,-5.00651 -5.39747,-4.63781 -5.71072,-4.24637 -5.9955,-3.83358 -6.25059,-3.40191 -6.47463,-2.95332 -6.66652,-2.49006 -29.55384,12.59477 -3.44514,5.25493 28.15301,66.06242 -12.45758,5.6306 -82.82971,-194.3621 22.59743,-97.87217 38.93147,-92.5956 54.1286,-84.61501 67.74502,-74.16343 79.38314,-61.54611 88.70304,-47.13146 95.43259,-31.34046 99.37527,-14.63424 100.415925,2.49934 98.523875,19.56007 93.75497,36.04945 117.95457,29.75155 24.91282,-2.0681 106.04722,-45.19348 7.30496,-4.31703 5.93871,-6.06059 4.16776,-7.39114 2.11278,-8.21798 -0.0862,-8.48479 -2.27927,-8.17338 -4.31703,-7.30495 -6.76138,-6.33388 -14.43568,-1.37464 -7.51789,0.78776 -3.14488,1.15769 -3.21904,0.93184 -3.27699,0.7013 -3.31846,0.46724 -3.34325,0.23082 -3.35119,-0.007 -3.34227,-0.24431 -6.6331,-0.96125 -3.34229,-0.24431 -3.35118,-0.007 -3.34324,0.23083 -3.31846,0.46723 -3.277,0.7013 -3.21903,0.93184 -6.28976,2.31538 -3.21903,0.93184 -3.277,0.7013 -3.31847,0.46724 -3.34323,0.23082 -3.3512,-0.007 -3.34227,-0.24431 -6.63311,-0.96125 -3.34228,-0.24431 -3.35118,-0.007 -3.34324,0.23081 -3.31847,0.46723 -3.277,0.7013 -3.21903,0.93184 -3.14487,1.15769 -0.47266,-4.51073 3.14487,-1.15769 3.21904,-0.93184 3.27699,-0.7013 3.31846,-0.46724 3.34324,-0.23082 3.3512,0.007 3.34227,0.24431 6.63311,0.96125 3.34228,0.24431 3.35118,0.007 3.34324,-0.23082 3.31847,-0.46723 3.27699,-0.7013 3.21904,-0.93184 6.28976,-2.31538 3.21903,-0.93184 3.277,-0.7013 3.31846,-0.46724 3.34324,-0.23082 3.35118,0.007 3.34229,0.24431 6.63309,0.96124 3.34228,0.24432 3.35119,0.007 3.34324,-0.23082 3.31847,-0.46723 3.27699,-0.70131 3.21904,-0.93183 3.14488,-1.15769 7.51789,-0.78777 -32.02803,-22.22735 -33.17653,-20.47359 -34.22909,-18.66061 -35.1827,-16.79369 -19.65573,-8.1156 -10.43585,-0.87063 -6.95392,2.96351 -2.66544,2.03123 -2.80274,1.83717 -2.92592,1.63386 -3.03437,1.42235 -3.12758,1.20365 -3.20503,0.97893 -3.26636,0.74926 -6.62253,1.03164 -3.26635,0.74925 -3.20504,0.97893 -3.12757,1.20365 -3.03437,1.42234 -2.92593,1.63387 -2.80273,1.83717 -5.33089,4.06247 -2.80274,1.83717 -2.92591,1.63387 -3.03438,1.42234 -3.12758,1.20366 -3.20502,0.97892 -3.26637,0.74926 -6.62252,1.03164 -3.26636,0.74926 -3.20504,0.97892 -3.12757,1.20366 -3.03438,1.42234 -2.92592,1.63387 -2.80273,1.83717 -2.66544,2.03124 -1.77823,-4.17231 2.66531,-2.03117 2.80274,-1.83717 2.92606,-1.63384 3.03453,-1.42231 3.12757,-1.20366 3.20503,-0.97892 3.26634,-0.74935 6.62252,-1.03164 3.26639,-0.74917 3.20503,-0.97892 3.12758,-1.20365 3.03438,-1.42235 2.92591,-1.63386 2.80271,-1.83726 5.33089,-4.06247 2.80276,-1.83709 2.92592,-1.63386 3.03434,-1.42243 3.12754,-1.20373 3.20504,-0.97892 3.26636,-0.74926 6.62253,-1.03164 3.26635,-0.74926 3.20503,-0.97892 3.12758,-1.20366 3.03437,-1.42234 2.92592,-1.63387 2.80274,-1.83717 2.66544,-2.03124 6.95392,-2.96351 -4.16487,-1.7196 -36.7822,-12.91971 -37.4235,-10.92384 -37.9566,-8.89637 -38.37998,-6.8432 -33.594121,-4.1417 -7.03723,1.56317 -6.31196,4.15914 -2.25931,2.47509 -2.42908,2.30869 -2.58662,2.1307 -2.73117,1.94197 -2.86195,1.74349 -2.97835,1.53623 -3.07976,1.32117 -6.33132,2.19917 -3.07979,1.32119 -2.97834,1.53622 -2.86195,1.74349 -2.73117,1.94197 -2.58662,2.1307 -2.42909,2.30865 -4.51861,4.95018 -2.42906,2.30875 -2.58663,2.1307 -2.73116,1.94197 -2.86196,1.74349 -2.978339,1.53622 -3.079765,1.32118 -6.331328,2.19916 -3.079784,1.32119 -2.978335,1.53623 -2.861959,1.74348 -2.731169,1.94197 -2.586626,2.1307 -2.429068,2.3087 -2.259307,2.47509 -2.495472,-3.78719 2.259298,-2.47508 2.429077,-2.30871 2.58663,-2.13069 2.731156,-1.94198 2.861959,-1.74348 2.978352,-1.53621 3.079774,-1.32119 6.331336,-2.19914 3.079765,-1.32118 2.978355,-1.53622 2.86195,-1.74347 2.73116,-1.94198 2.58663,-2.13069 2.42904,-2.30883 4.51861,-4.95017 2.42911,-2.30859 2.58663,-2.13069 2.73116,-1.94198 2.86196,-1.74348 2.97835,-1.53621 3.07977,-1.32119 6.33134,-2.19914 3.07976,-1.32118 2.97835,-1.53622 2.86196,-1.74347 2.73116,-1.94198 2.58663,-2.1307 2.42907,-2.3087 2.25931,-2.47509 4.20784,-3.02939 -32.35418,-2.21787 -38.98084,-0.58909 -97.690999,-5.33034 -7.71754,2.38141 -4.98086,5.68597 -1.52091,2.9862 -1.72877,2.87085 -1.92794,2.74109 -2.1174,2.59754 -2.29621,2.44089 -2.46346,2.27197 -2.61838,2.09148 -5.52001,3.80151 -2.61828,2.09176 -2.46346,2.27198 -2.2962,2.4409 -2.1174,2.59752 -1.92794,2.74109 -1.72882,2.87073 -3.04182,5.97238 -1.72873,2.871 -1.92793,2.7411 -2.11739,2.59752 -2.29621,2.44089 -2.46346,2.27198 -2.61838,2.09148 -5.52002,3.8015 -2.61827,2.09178 -2.46347,2.27196 -2.2962,2.4409 -2.1174,2.59752 -1.92793,2.74109 -1.72877,2.87087 -1.52091,2.98619 -3.4116,-2.98851 1.52092,-2.9862 1.72877,-2.87087 1.92794,-2.74109 2.11739,-2.59752 2.29621,-2.44089 2.46346,-2.27198 2.61828,-2.09176 5.52001,-3.8015 2.61837,-2.09149 2.46348,-2.27197 2.2962,-2.4409 2.1174,-2.59752 1.92793,-2.74109 1.72872,-2.87101 3.04182,-5.97239 1.72882,-2.87072 1.92793,-2.74109 2.11741,-2.59753 2.29621,-2.44089 2.46346,-2.27197 2.61828,-2.09176 5.52001,-3.80151 2.61837,-2.09149 2.46347,-2.27197 2.2962,-2.44089 2.1174,-2.59753 1.92794,-2.74109 1.72877,-2.87086 1.52091,-2.98619 4.98112,-5.68626 -11.69874,-0.63861 -118.69176,15.12468 -48.56723,15.58276 -4.2614,4.97333 -3.94037,6.4508 -0.99044,3.20149 -1.21489,3.12323 -1.43325,3.02924 -1.64437,2.92003 -1.84724,2.7961 -2.04081,2.65813 -2.2244,2.50689 -4.79242,4.6856 -2.2238,2.50663 -2.0408,2.65813 -1.84724,2.79611 -1.64438,2.92002 -1.43324,3.02925 -1.2152,3.12335 -1.98087,6.40299 -1.2146,3.1231 -1.43324,3.02924 -1.64438,2.92003 -1.84724,2.79611 -2.0408,2.65812 -2.22441,2.50689 -4.79242,4.6856 -2.22379,2.50664 -2.04081,2.65812 -1.84724,2.79611 -1.64437,2.92003 -1.43325,3.02924 -1.21489,3.12323 -0.99044,3.20149 -3.87091,-2.36404 0.99002,-3.20131 1.21489,-3.12322 1.43337,-3.02931 1.6445,-2.92007 1.84724,-2.79611 2.0408,-2.65812 2.2241,-2.50677 4.7923,-4.68554 2.22397,-2.50672 2.04081,-2.65813 1.84723,-2.7961 1.64439,-2.92003 1.43324,-3.02924 1.21501,-3.12328 1.98088,-6.40298 1.21478,-3.12317 1.43324,-3.02925 1.64438,-2.92002 1.84724,-2.79611 2.0408,-2.65813 2.22422,-2.50682 4.79242,-4.68559 2.22398,-2.50672 2.0408,-2.65813 1.84724,-2.79611 1.64438,-2.92002 1.43324,-3.02925 1.2149,-3.12322 0.99044,-3.2015 3.9408,-6.45097 z"
       inkscape:connector-curvature="0"
       sodipodi:nodetypes="ccccccccccccccccccccccccccccccccccccccccccccccccccccccccccccccccccccccccccccccccccccccccccccccccccccccccccccccccccccccccccccccccccccccccccccccccccccccccccccccccccccccccccccccccccccccccccccccccccccccccccccccccccccccccccccccccccccccccccccccccccccccccccccccccccccccccccccccccccccccccccccccccccccccccccccccccccccccccccccccccccccccccccccccccccccccccccccccccccccccccccccccccccccccccccccccccccccccccccccccccccccccccccccccccccccccccccccccccccccccccccccccccccccccccccccccccccccccccccccccccccccccccccccccccccccccccccccccccccccccccccccccccccccccccccccccccccccccccccccccccccccccccccccccccccccccccccccccccccccccccccccccccccccccccccccccccccccccccccccccccccccccccccccccccccccccccccccccccccccccccccccccccccccccccccccccccccccccccccccccccccccccccccccccccccccccccccccccccccccccccccccccccccccccccccccc" />
    <path
       id="path7289-4"
       style="fill:none;stroke:#000000"
       d="m 247.74384,425.25217 -91.47033,-31.4796 -5.22548,1.67217 -6.75152,3.39942 -2.53102,2.19648 -2.68033,2.01155 -2.81617,1.81651 -2.93787,1.61227 -3.04477,1.39998 -3.13634,1.18061 -3.21245,0.95518 -6.54358,1.45038 -3.21184,0.95545 -3.13635,1.1806 -3.04477,1.39997 -2.93787,1.6123 -2.81617,1.81649 -2.680629,2.01144 -5.061949,4.393 -2.680033,2.01171 -2.816177,1.81649 -2.937868,1.61229 -3.044764,1.39997 -3.136349,1.18061 -3.21245,0.95517 -6.543573,1.45039 -3.211846,0.95544 -3.136359,1.18061 -3.044756,1.39998 -2.937857,1.61229 -2.816188,1.81649 -2.680313,2.01157 -2.531018,2.19647 -2.03964,-4.05092 2.530942,-2.19654 2.680323,-2.01157 2.815877,-1.81663 2.937448,-1.61248 3.044628,-1.40002 3.136359,-1.18061 3.212275,-0.95524 6.543991,-1.45022 3.212452,-0.95518 3.136357,-1.18059 3.044756,-1.39999 2.937857,-1.61228 2.816188,-1.81649 2.680012,-2.01171 5.061969,-4.393 2.680625,-2.01144 2.81618,-1.81649 2.93786,-1.6123 3.04476,-1.39997 3.13636,-1.1806 3.21185,-0.95545 6.54357,-1.45039 3.21245,-0.95517 3.13603,-1.18075 3.04446,-1.40012 2.93786,-1.61228 2.81618,-1.8165 2.68033,-2.01156 2.53094,-2.19654 6.75155,-3.39941 -1.13767,-0.51306 -12.73648,-4.38325 -118.348328,-17.61148 -9.7651429,0.32739 -8.9693811,4.19049 -6.3449085,4.10869 -2.2789655,2.45701 -2.447404,2.28927 -2.60352,2.11001 -2.746548,1.92015 -2.875765,1.72061 -2.990494,1.51244 -3.090181,1.29662 -6.348665,2.14862 -3.090196,1.29662 -2.9905,1.51243 -2.875751,1.72062 -2.746555,1.92015 -2.603535,2.11001 -2.447396,2.28927 -4.557917,4.914 -2.447403,2.28927 -2.603528,2.11002 -2.746547,1.92015 -2.875764,1.72059 -2.990502,1.51245 -3.090181,1.29662 -6.348665,2.14862 -3.090196,1.29662 -2.990483,1.51243 -2.875776,1.72062 -2.746549,1.92014 -2.603526,2.11001 -2.447404,2.28927 -2.278947,2.45701 -2.465213,-3.80696 2.278955,-2.45699 2.447404,-2.28926 2.603527,-2.11002 2.74655,-1.92015 2.875754,-1.72061 2.990503,-1.51242 3.090194,-1.29664 6.348672,-2.14861 3.090181,-1.29663 2.9905,-1.51242 2.875759,-1.72063 2.746539,-1.92014 2.603529,-2.11002 2.447403,-2.28927 4.557917,-4.91402 2.447389,-2.28925 2.603529,-2.11003 2.746547,-1.92014 2.875772,-1.72061 2.9905,-1.51243 3.090195,-1.29662 6.348659,-2.14863 3.090176,-1.29663 2.9905,-1.51242 2.875764,-1.72061 2.746554,-1.92015 2.603521,-2.11001 2.447404,-2.28927 2.278966,-2.45701 6.3449134,-4.10868 -99.4312494,3.3351 -9.10584,5.83134 -5.31463,5.37533 -1.69819,2.88906 -1.89872,2.7614 -2.0897,2.61987 -2.27016,2.46513 -2.43918,2.29802 -2.59597,2.11931 -2.73966,1.92996 -5.73918,3.46176 -2.73968,1.92996 -2.59596,2.1193 -2.43919,2.29803 -2.27015,2.46514 -2.08971,2.61985 -1.8987,2.76142 -3.39638,5.77812 -1.89873,2.7614 -2.0897,2.61987 -2.27014,2.46513 -2.4392,2.29802 -2.59596,2.11931 -2.73968,1.92996 -5.73918,3.46176 -2.73967,1.92996 -2.59596,2.11931 -2.43919,2.29802 -2.27016,2.46514 -2.08969,2.61986 -1.89872,2.76142 -1.69819,2.88904 -3.2252,-3.18877 1.69819,-2.88905 1.89872,-2.76141 2.08969,-2.61987 2.27016,-2.46513 2.43919,-2.29802 2.59597,-2.11931 2.73968,-1.92996 5.73918,-3.46177 2.73965,-1.92995 2.59596,-2.11932 2.43919,-2.29802 2.27016,-2.46514 2.08969,-2.61986 1.89873,-2.76142 3.39637,-5.77811 1.89872,-2.76142 2.08969,-2.61985 2.27016,-2.46513 2.43919,-2.29803 2.59596,-2.11931 2.73968,-1.92995 5.73919,-3.46177 2.73964,-1.92996 2.59597,-2.11932 2.43919,-2.29801 2.27016,-2.46514 2.0897,-2.61986 1.89872,-2.76141 1.69818,-2.88907 5.31463,-5.37532 -107.05921,22.94307 -11.22907,8.66325 -4.3761,6.16355 -1.20897,3.12553 -1.42751,3.03195 -1.63883,2.92312 -1.84196,2.79961 -2.03577,2.66198 -2.21935,2.51097 -2.39177,2.34732 -5.10441,4.34371 -2.39186,2.34728 -2.21934,2.51099 -2.03576,2.66198 -1.84193,2.7996 -1.63886,2.92314 -1.42739,3.032 -2.41795,6.25104 -1.42758,3.03193 -1.63884,2.92313 -1.84195,2.7996 -2.03577,2.66198 -2.21935,2.51097 -2.39173,2.34735 -5.10431,4.34374 -2.39181,2.34732 -2.21936,2.51096 -2.03577,2.66198 -1.84194,2.7996 -1.63885,2.92313 -1.42748,3.03197 -1.20899,3.12551 -3.69811,-2.62565 1.20898,-3.12552 1.42749,-3.03196 1.63886,-2.92312 1.84195,-2.79961 2.03577,-2.66198 2.21935,-2.51097 2.3918,-2.34732 5.1043,-4.34374 2.39174,-2.34733 2.21936,-2.51099 2.03577,-2.66196 1.84195,-2.79961 1.63885,-2.92313 1.42749,-3.03196 2.41799,-6.25104 1.42748,-3.03196 1.63887,-2.92312 1.84193,-2.7996 2.03581,-2.66195 2.21934,-2.511 2.39176,-2.34733 5.10428,-4.34377 2.39176,-2.34733 2.2194,-2.51092 2.03579,-2.66198 1.8419,-2.79964 1.63886,-2.92313 1.42751,-3.03193 1.20886,-3.12558 4.37598,-6.16357 -93.58524,37.8524 -4.26442,5.74312 -3.47571,6.71258 -0.76224,3.26335 -0.99166,3.20111 -1.21605,3.1228 -1.43435,3.02872 -1.64543,2.9194 -1.84816,2.79547 -2.04183,2.65735 -4.45019,5.0118 -2.04194,2.65732 -1.84826,2.79543 -1.64552,2.91935 -1.43436,3.02871 -1.21604,3.12282 -0.99156,3.20114 -1.52449,6.5267 -0.99169,3.20114 -1.21611,3.12272 -1.43435,3.02872 -1.64545,2.91943 -1.84826,2.79543 -2.04181,2.65733 -4.45002,5.01191 -2.04192,2.6573 -1.84834,2.79536 -1.64546,2.91943 -1.43396,3.02891 -1.21573,3.12292 -0.99165,3.2011 -0.76224,3.26335 -4.02756,-2.08542 0.76224,-3.26335 0.99166,-3.2011 1.21604,-3.12281 1.43443,-3.02865 1.64546,-2.91944 1.84827,-2.79543 2.04152,-2.65747 4.45009,-5.01185 2.04214,-2.65722 1.84827,-2.79543 1.64552,-2.91936 1.43436,-3.02872 1.21612,-3.12273 0.99128,-3.20131 1.52448,-6.5267 0.99197,-3.20097 1.21611,-3.12274 1.43435,-3.02872 1.64547,-2.91943 1.84834,-2.79537 2.04144,-2.65753 4.4501,-5.01185 2.04213,-2.65723 1.84834,-2.79536 1.64545,-2.91943 1.43436,-3.02872 1.21612,-3.12275 0.99166,-3.2011 0.76224,-3.26334 3.47572,-6.71258 -91.07154,56.77373 -5.34317,4.85551 -3.43439,4.87635 -2.86522,6.99498 -0.46914,3.31819 -0.70321,3.27655 -0.93364,3.21851 -1.15947,3.14424 -1.37953,3.05409 -1.59246,2.94866 -1.79787,2.82814 -3.98692,5.38765 -1.79719,2.82847 -1.59247,2.94866 -1.37953,3.05408 -1.15953,3.14418 -0.93365,3.21852 -0.70344,3.27648 -0.93825,6.63636 -0.70285,3.27677 -0.93366,3.21851 -1.15947,3.14425 -1.37959,3.054 -1.59247,2.94867 -1.79771,2.82827 -3.98698,5.38756 -1.79728,2.82842 -1.59247,2.94867 -1.37953,3.05409 -1.15947,3.14424 -0.93365,3.21851 -0.70321,3.27655 -0.46913,3.31817 -4.19695,-1.71909 0.46913,-3.31818 0.70315,-3.27663 0.93365,-3.21852 1.15944,-3.14422 1.37953,-3.05409 1.59246,-2.94865 1.79738,-2.82837 3.98692,-5.38765 1.79767,-2.82823 1.59246,-2.94865 1.37953,-3.0541 1.15937,-3.14429 0.93373,-3.21845 0.70304,-3.27666 0.93827,-6.63638 0.70323,-3.27656 0.93366,-3.21853 1.15944,-3.14422 1.37954,-3.05409 1.59245,-2.94864 1.79741,-2.82841 3.98698,-5.38756 1.79752,-2.82837 1.59245,-2.94864 1.37954,-3.0541 1.15943,-3.14422 0.93366,-3.21852 0.7032,-3.27654 0.46908,-3.31827 2.86529,-6.9949 -14.27762,11.17279 -13.90671,11.63125 -13.52099,12.07743 -13.12106,12.51079 -12.70722,12.93091 -12.27987,13.33742 -11.83958,13.72979 -11.38671,14.10761 -10.92189,14.47047 -10.44546,14.81801 -9.95797,15.14994 -9.45995,15.4659 -30.45462,67.52912 -1.16298,6.66225 -0.39233,6.75156 0.38354,6.75215 1.15422,6.66373 1.90983,6.48778 2.64032,6.22627 3.33601,5.88296 3.9878,5.46219 4.58881,4.96796 5.12612,4.41149 5.59753,3.79545 5.99543,3.12937 34.45365,15.53802 -22.99641,50.99145 50.53686,22.79138 7.76902,-17.22684 77.52066,34.96064 23.8015,-52.77657 2.69523,-6.58622 2.22478,-6.75962 1.74325,-6.89956 1.25309,-7.00519 0.75673,-7.07608 0.25656,-7.1118 -0.24493,-7.11209 -0.74505,-7.07738 -1.24163,-7.00717 -1.73197,-6.9024 -2.21371,-6.76331 -2.68448,-6.59064 -29.28524,-13.20725 -6.19935,1.02572 -29.5227,65.46177 -12.58095,-5.34925 86.85817,-192.59558 87.30149,-49.67952 94.48534,-34.08994 98.90999,-17.50485 100.446183,-0.40857 99.049118,16.69963 94.759549,33.32016 87.70274,48.96767 78.08481,63.18517 66.18659,75.55753 52.35525,85.72327 36.9953,93.38578 58.02152,106.92028 18.39809,16.9244 105.08349,47.3912 8.12413,2.4488 8.48121,0.2629 8.26014,-1.9413 7.47631,-4.013 6.18302,-5.8111 4.46813,-7.2136 2.44893,-8.1241 0.0787,-9.2644 -8.76806,-11.5499 -5.67234,-4.9963 -2.98197,-1.5291 -2.86617,-1.7367 -2.73581,-1.9353 -2.59169,-2.1245 -2.43465,-2.3029 -2.26506,-2.4699 -2.08441,-2.6239 -3.78639,-5.5304 -2.08449,-2.6241 -2.26505,-2.4698 -2.4346,-2.3028 -2.59175,-2.1245 -2.73581,-1.9355 -2.86611,-1.7366 -5.96407,-3.0581 -2.8661,-1.7366 -2.73581,-1.9354 -2.59177,-2.1246 -2.43458,-2.3028 -2.26506,-2.4698 -2.08448,-2.6241 -3.78639,-5.5304 -2.08448,-2.624 -2.26506,-2.4698 -2.43458,-2.3029 -2.59174,-2.1245 -2.73582,-1.9354 -2.86611,-1.7366 -2.98204,-1.52911 2.99788,-3.40335 2.98196,1.52901 2.86618,1.73666 2.73581,1.93539 2.59169,2.1245 2.43465,2.3029 2.26506,2.4698 2.08441,2.624 3.7864,5.5304 2.08448,2.624 2.26505,2.4699 2.43459,2.3028 2.59175,2.1245 2.73581,1.9355 2.86611,1.7365 5.96407,3.0582 2.86611,1.7366 2.73581,1.9354 2.59176,2.1245 2.43458,2.3028 2.26506,2.4699 2.08448,2.624 3.7864,5.5305 2.08447,2.624 2.26507,2.4698 2.43458,2.3028 2.59175,2.1245 2.73582,1.9355 2.86609,1.7366 2.98205,1.529 5.67233,4.9965 -5.34659,-38.6167 -7.4148,-38.27364 -9.46147,-37.8197 -11.48076,-37.25645 -7.3457,-19.9562 -6.4292,-8.26628 -6.89072,-3.1076 -3.29977,-0.58461 -3.2501,-0.81713 -3.18395,-1.04542 -3.10179,-1.26843 -3.00413,-1.48523 -2.89132,-1.69446 -2.76384,-1.89507 -5.2452,-4.17257 -2.76387,-1.89511 -2.89127,-1.69441 -3.00411,-1.4852 -3.10184,-1.2685 -3.18397,-1.04543 -3.25006,-0.81709 -6.59961,-1.16926 -3.25006,-0.81709 -3.18395,-1.04542 -3.10184,-1.26851 -3.00413,-1.4852 -2.89126,-1.6944 -2.76389,-1.89512 -5.24517,-4.17256 -2.76389,-1.89511 -2.89128,-1.69442 -3.00411,-1.48519 -3.10184,-1.26851 -3.18397,-1.04542 -3.25005,-0.81709 -3.29981,-0.58463 1.86446,-4.13449 3.29967,0.58458 3.25006,0.81709 3.18403,1.04555 3.10193,1.26863 3.00411,1.48519 2.89127,1.69442 2.76393,1.89504 5.24518,4.17255 2.76383,1.8952 2.89128,1.69441 3.00412,1.48521 3.10184,1.2685 3.18395,1.04541 3.25011,0.81702 6.59961,1.16926 3.25001,0.81717 3.18396,1.04543 3.10189,1.26841 3.00414,1.48512 2.89127,1.69442 2.76389,1.89511 5.24519,4.17259 2.76385,1.89507 2.89126,1.69439 3.00413,1.48521 3.10185,1.26852 3.18395,1.04541 3.2501,0.81714 3.29979,0.5846 6.89071,3.1076 -1.55653,-4.22855 -15.41392,-35.80862 -17.3165,-34.92831 -19.16903,-33.94698 -20.96611,-32.86753 -19.71121,-27.51704 -5.9171,-4.11754 -7.33532,-1.82543 -3.35117,0.0148 -3.34376,-0.22316 -3.31957,-0.45927 -3.27866,-0.69345 -3.22127,-0.92411 -3.14765,-1.15013 -3.05817,-1.37042 -5.90672,-3.16744 -3.0582,-1.37042 -3.14764,-1.15013 -3.22127,-0.92412 -3.27866,-0.69344 -3.31958,-0.45928 -3.34373,-0.22316 -6.70233,0.0296 -3.34378,-0.22317 -3.31957,-0.45927 -3.27866,-0.69345 -3.22128,-0.92411 -3.14764,-1.15013 -3.05818,-1.37043 -5.90671,-3.16743 -3.0582,-1.37043 -3.14765,-1.15013 -3.22127,-0.92411 -3.27866,-0.69346 -3.31958,-0.45927 -3.34375,-0.22316 -3.35116,0.0148 1.09528,-4.4012 3.35115,-0.0148 3.34377,0.22316 3.31957,0.45929 3.27866,0.69343 3.22126,0.92413 3.14765,1.15014 3.05819,1.37042 5.90671,3.16746 3.05818,1.37042 3.14765,1.15014 3.22124,0.92412 3.27867,0.69344 3.31957,0.45929 3.34382,0.22316 6.70233,-0.0296 3.34371,0.22316 3.31957,0.45928 3.27867,0.69344 3.22126,0.92412 3.14764,1.15015 3.05819,1.37042 5.90671,3.16746 3.05817,1.37041 3.14766,1.15015 3.22125,0.92412 3.27866,0.69344 3.31958,0.45928 3.34376,0.22316 3.35117,-0.0148 5.0789,1.04301 -20.28636,-25.30169 -25.97359,-29.07277 -62.25818,-75.47091 -6.97985,-4.06366 -7.55671,0.18802 -3.22691,0.9042 -3.28289,0.67314 -3.32235,0.43875 -3.34511,0.20213 -3.35101,-0.0355 -3.34005,-0.27303 -3.31224,-0.50921 -6.53576,-1.48515 -3.31238,-0.50895 -3.34007,-0.27293 -3.351,-0.0355 -3.34509,0.20212 -3.32236,0.43875 -3.28282,0.67303 -6.45382,1.80837 -3.28297,0.67328 -3.32235,0.43876 -3.34509,0.20213 -3.351,-0.0355 -3.34007,-0.27293 -3.31224,-0.5092 -6.53576,-1.48518 -3.31239,-0.50892 -3.34005,-0.27303 -3.35101,-0.0355 -3.34509,0.20212 -3.32235,0.43875 -3.2829,0.67316 -3.2269,0.90419 -0.11283,-4.53403 3.22692,-0.90419 3.2829,-0.67316 3.32235,-0.43875 3.34509,-0.20212 3.351,0.0355 3.34007,0.27293 3.31238,0.50894 6.53576,1.48517 3.31223,0.50919 3.34007,0.27303 3.35101,0.0355 3.34509,-0.20212 3.32235,-0.43875 3.28296,-0.6733 6.45383,-1.80837 3.28282,-0.67303 3.32235,-0.43875 3.3451,-0.20212 3.35101,0.0355 3.34006,0.27293 3.31237,0.50894 6.53577,1.48516 3.31224,0.50919 3.34005,0.27303 3.35101,0.0355 3.3451,-0.20213 3.32236,-0.43874 3.28287,-0.67316 3.22692,-0.90419 7.5571,-0.18803 -7.45537,-9.03802 -91.53119,-77.06186 -44.36349,-25.16901 -6.54512,0.23448 -7.41444,1.47151 -3.02592,1.44023 -3.12041,1.22214 -3.19919,0.99783 -3.26188,0.76855 -3.30815,0.53537 -3.33779,0.29952 -3.35092,0.062 -6.69319,-0.35109 -3.35031,0.0623 -3.33779,0.29952 -3.30815,0.53538 -3.26188,0.76854 -3.19919,0.99784 -3.12071,1.22199 -6.05184,2.88049 -3.12012,1.22225 -3.19918,0.99784 -3.26189,0.76854 -3.30816,0.53538 -3.33778,0.29952 -3.35091,0.062 -6.6932,-0.35109 -3.35031,0.0623 -3.33778,0.29952 -3.30817,0.53537 -3.26188,0.76855 -3.19919,0.99783 -3.1204,1.22213 -3.02592,1.44024 -0.88333,-4.44886 3.0255,-1.44042 3.1204,-1.22213 3.19932,-0.99779 3.26201,-0.76848 3.30815,-0.53538 3.33778,-0.29951 3.35061,-0.0622 6.69308,0.35099 3.3505,-0.0622 3.33779,-0.29952 3.30814,-0.53537 3.26189,-0.76854 3.19918,-0.99784 3.12053,-1.22208 6.05184,-2.88048 3.12029,-1.22216 3.19919,-0.99785 3.26188,-0.76853 3.30816,-0.53538 3.33778,-0.29953 3.35074,-0.0621 6.69319,0.35109 3.3505,-0.0622 3.33779,-0.29953 3.30815,-0.53537 3.26188,-0.76854 3.1992,-0.99785 3.1204,-1.22211 3.02593,-1.44025 7.41486,-1.47131 z"
       inkscape:connector-curvature="0"
       sodipodi:nodetypes="ccccccccccccccccccccccccccccccccccccccccccccccccccccccccccccccccccccccccccccccccccccccccccccccccccccccccccccccccccccccccccccccccccccccccccccccccccccccccccccccccccccccccccccccccccccccccccccccccccccccccccccccccccccccccccccccccccccccccccccccccccccccccccccccccccccccccccccccccccccccccccccccccccccccccccccccccccccccccccccccccccccccccccccccccccccccccccccccccccccccccccccccccccccccccccccccccccccccccccccccccccccccccccccccccccccccccccccccccccccccccccccccccccccccccccccccccccccccccccccccccccccccccccccccccccccccccccccccccccccccccccccccccccccccccccccccccccccccccccccccccccccccccccccccccccccccccccccccccccccccccccccccccccccccccccccccccccccccccccccccccccccccccccccccccccccccccccccccccccccccccccccccccccccccccccccccccccccccccccccccccccccccccccccccccccccccccccccccccccccccccccccccccccccccccccccc" />
  </g>
  <g
     inkscape:groupmode="layer"
     id="layer1"
     inkscape:label="Rohmaterial"
     transform="translate(774.46994,-154.03179)" />
</svg>
