<?xml version="1.0" encoding="UTF-8" standalone="no"?>
<svg
   xmlns:dc="http://purl.org/dc/elements/1.1/"
   xmlns:cc="http://creativecommons.org/ns#"
   xmlns:rdf="http://www.w3.org/1999/02/22-rdf-syntax-ns#"
   xmlns:svg="http://www.w3.org/2000/svg"
   xmlns="http://www.w3.org/2000/svg"
   xmlns:sodipodi="http://sodipodi.sourceforge.net/DTD/sodipodi-0.dtd"
   xmlns:inkscape="http://www.inkscape.org/namespaces/inkscape"
   width="360.30859"
   height="362.32281"
   version="1.1"
   id="svg3466"
   sodipodi:docname="woodlight_Blatt_klein.svg"
   inkscape:version="0.92.2 (5c3e80d, 2017-08-06)">
  <metadata
     id="metadata3470">
    <rdf:RDF>
      <cc:Work
         rdf:about="">
        <dc:format>image/svg+xml</dc:format>
        <dc:type
           rdf:resource="http://purl.org/dc/dcmitype/StillImage" />
        <dc:title />
      </cc:Work>
    </rdf:RDF>
  </metadata>
  <sodipodi:namedview
     pagecolor="#ffffff"
     bordercolor="#666666"
     borderopacity="1"
     objecttolerance="10"
     gridtolerance="10"
     guidetolerance="10"
     inkscape:pageopacity="0"
     inkscape:pageshadow="2"
     inkscape:window-width="1366"
     inkscape:window-height="711"
     id="namedview3468"
     showgrid="false"
     inkscape:zoom="0.49328864"
     inkscape:cx="-138.41334"
     inkscape:cy="240.49546"
     inkscape:window-x="-4"
     inkscape:window-y="-4"
     inkscape:window-maximized="1"
     inkscape:current-layer="svg3466" />
  <desc
     id="desc2">C:\Users\Andreas Reheis\Documents\Laser\woodlight\woodlight.dxf - scale = 1.000000, origin = (0.000000, 0.000000), method = file</desc>
  <defs
     id="defs16">
    <marker
       id="DistanceX"
       orient="auto"
       refX="0"
       refY="0"
       style="overflow:visible">
      <path
         d="M 3,-3 -3,3 M 0,-5 V 5"
         style="stroke:#000000;stroke-width:0.5"
         id="path4"
         inkscape:connector-curvature="0" />
    </marker>
    <pattern
       height="8"
       id="Hatch"
       patternUnits="userSpaceOnUse"
       width="8"
       x="0"
       y="0">
      <path
         d="M8 4 l-4,4"
         linecap="square"
         stroke="#000000"
         stroke-width="0.25"
         id="path7" />
      <path
         d="M6 2 l-4,4"
         linecap="square"
         stroke="#000000"
         stroke-width="0.25"
         id="path9" />
      <path
         d="M4 0 l-4,4"
         linecap="square"
         stroke="#000000"
         stroke-width="0.25"
         id="path11" />
    </pattern>
    <symbol
       id="*MODEL_SPACE" />
    <symbol
       id="*PAPER_SPACE" />
  </defs>
  <g
     inkscape:label="PROFILEEDGES"
     id="g3462"
     transform="translate(216.04678,-1222.3653)"
     style="display:inline">
    <path
       style="fill:none;fill-opacity:1;stroke:#000000"
       d="m -182.33544,1232.3026 c -9.66336,13.5446 -10.71936,31.422 -15.92238,47.0057 -10.74327,47.4706 -19.18297,96.3191 -16.16763,145.126 3.89546,49.5125 12.52483,99.0707 28.77022,146.0196 10.33056,16.1079 32.03128,11.9528 48.38765,13.7342 40.428178,-1.0781 81.347513,2.8802 121.3765,-3.8535 43.331654,-7.3485 84.175555,-28.8899 114.206389,-61.0559 24.490261,-26.704 40.860551,-60.9064 44.811121,-97.0546 3.49701,-35.0434 -3.12133,-71.4204 -21.22666,-101.8828 -18.9346,-33.9533 -49.773517,-60.5185 -84.81794,-76.9574 -35.0302142,-17.0138 -74.506546,-21.6026 -113.081157,-20.5186 -32.388423,1.0195 -65.317513,-2.6955 -97.287643,3.5567 -3.40303,1.2818 -6.49377,3.2934 -9.04847,5.8806 z"
       id="Blatt klein"
       inkscape:connector-curvature="0" />
  </g>
</svg>
