<?xml version="1.0" encoding="UTF-8" standalone="no"?>
<svg
   xmlns:dc="http://purl.org/dc/elements/1.1/"
   xmlns:cc="http://creativecommons.org/ns#"
   xmlns:rdf="http://www.w3.org/1999/02/22-rdf-syntax-ns#"
   xmlns:svg="http://www.w3.org/2000/svg"
   xmlns="http://www.w3.org/2000/svg"
   xmlns:sodipodi="http://sodipodi.sourceforge.net/DTD/sodipodi-0.dtd"
   xmlns:inkscape="http://www.inkscape.org/namespaces/inkscape"
   width="416.82983"
   height="865.88928"
   version="1.1"
   id="svg8461"
   sodipodi:docname="woodlight_Ringe_36.svg"
   inkscape:version="0.92.2 (5c3e80d, 2017-08-06)">
  <metadata
     id="metadata8465">
    <rdf:RDF>
      <cc:Work
         rdf:about="">
        <dc:format>image/svg+xml</dc:format>
        <dc:type
           rdf:resource="http://purl.org/dc/dcmitype/StillImage" />
        <dc:title></dc:title>
      </cc:Work>
    </rdf:RDF>
  </metadata>
  <sodipodi:namedview
     pagecolor="#ffffff"
     bordercolor="#666666"
     borderopacity="1"
     objecttolerance="10"
     gridtolerance="10"
     guidetolerance="10"
     inkscape:pageopacity="0"
     inkscape:pageshadow="2"
     inkscape:window-width="1366"
     inkscape:window-height="711"
     id="namedview8463"
     showgrid="false"
     inkscape:zoom="2.8284271"
     inkscape:cx="147.23199"
     inkscape:cy="259.56354"
     inkscape:window-x="-4"
     inkscape:window-y="-4"
     inkscape:window-maximized="1"
     inkscape:current-layer="g8457"
     inkscape:measure-start="191.626,348.604"
     inkscape:measure-end="235.82,347.897" />
  <desc
     id="desc4997">C:\Users\Andreas Reheis\Documents\Laser\woodlight\woodlight.dxf - scale = 1.000000, origin = (0.000000, 0.000000), method = file</desc>
  <defs
     id="defs5011">
    <marker
       id="DistanceX"
       orient="auto"
       refX="0"
       refY="0"
       style="overflow:visible">
      <path
         d="M 3,-3 -3,3 M 0,-5 V 5"
         style="stroke:#000000;stroke-width:0.5"
         id="path4999"
         inkscape:connector-curvature="0" />
    </marker>
    <pattern
       height="8"
       id="Hatch"
       patternUnits="userSpaceOnUse"
       width="8"
       x="0"
       y="0">
      <path
         d="M8 4 l-4,4"
         linecap="square"
         stroke="#000000"
         stroke-width="0.25"
         id="path5002" />
      <path
         d="M6 2 l-4,4"
         linecap="square"
         stroke="#000000"
         stroke-width="0.25"
         id="path5004" />
      <path
         d="M4 0 l-4,4"
         linecap="square"
         stroke="#000000"
         stroke-width="0.25"
         id="path5006" />
    </pattern>
    <symbol
       id="*MODEL_SPACE" />
    <symbol
       id="*PAPER_SPACE" />
  </defs>
  <g
     inkscape:groupmode="layer"
     inkscape:label="Ringe"
     id="g8457"
     style="display:inline"
     transform="translate(-317.16347,-439.65119)">
    <path
       style="fill:none;stroke:#000000"
       d="m 522.80235,727.38763 c 32.43486,1.10573 64.62647,-19.08249 76.20233,-49.82363 13.71806,-31.79759 2.35323,-72.04495 -25.37166,-92.51213 -26.34951,-20.43293 -64.79282,-21.66193 -92.33798,-2.64934 -27.33004,17.78258 -41.43841,54.47532 -32.18296,86.10457 8.31147,33.30685 39.52932,57.64257 73.69027,58.88053 z M 629.05008,564.46205 619.37449,554.28 c 16.14954,-16.14955 37.79944,-36.29895 53.94898,-52.4485 -13.82585,-12.07587 -28.29045,-25.06758 -44.65936,-33.64322 -13.02327,-8.26561 -27.868,-13.44135 -42.28832,-18.64779 -15.08461,-3.61496 -30.79805,-8.03512 -46.43563,-8.15876 v 74.40092 h -13.6063 l 0.37796,-75.59056 c -18.31528,1.23742 -37.79519,2.27789 -55.43366,7.78857 -15.05351,3.36416 -29.21011,10.20118 -43.08833,16.71638 -13.22259,8.11027 -27.68118,16.31878 -38.82605,27.28879 l 52.98898,52.22929 -8.56063,8.8063 -54.44787,-52.70174 c -12.07587,13.82585 -25.06807,28.29179 -33.64371,44.6607 -8.26561,13.02327 -13.44135,27.868 -18.64779,42.28832 -3.61496,15.08461 -8.03493,30.79671 -8.15857,46.43429 h 74.40073 v 13.6063 h -75.59055 c 1.23741,18.31528 2.27788,37.41857 7.78856,55.05704 3.36416,15.05351 10.20118,29.21011 16.71638,43.08833 8.11027,13.22259 16.31549,27.67984 27.2855,38.82471 l 52.61102,-52.60724 8.92725,8.67779 c -16.14955,16.14954 -37.05108,37.79944 -53.20063,53.94898 13.82585,12.07587 28.29129,25.0694 44.6602,33.64504 13.02327,8.26561 27.868,13.44135 42.28832,18.64779 15.08461,3.61496 30.7972,8.03493 46.43478,8.15858 v -74.40073 h 13.6063 v 75.59055 c 18.31528,-1.23742 37.41808,-2.27789 55.05655,-7.78857 15.05351,-3.36416 29.21011,-10.20118 43.08833,-16.71638 13.22259,-8.11027 27.68033,-16.31682 38.8252,-27.28683 l -52.61102,-52.61103 9.30897,-10.17449 53.32158,54.44788 c 12.07587,-13.82585 25.06891,-28.28996 33.64455,-44.65887 8.26561,-13.02327 13.44135,-27.868 18.64779,-42.28832 3.61496,-15.08461 8.03493,-30.79854 8.15858,-46.43612 h -74.40074 l -4.2e-4,-13.6063 h 75.59098 c -1.23742,-18.31528 -2.27789,-37.41674 -7.78857,-55.05521 -3.36416,-15.05351 -10.20118,-29.21011 -16.71638,-43.08833 -8.11027,-13.22259 -15.93838,-27.68167 -26.90839,-38.82654 z"
       id="Ring1"
       inkscape:connector-curvature="0"
       sodipodi:nodetypes="ccccccccccccccccccccccccccccccccccccccccccccccccccccccc" />
    <path
       style="fill:none;stroke:#000000"
       d="m 680.53901,1111.526 v -13.6063 h -75.59055 c -0.35735,-15.673 -5.53173,-32.8187 -14.4609,-45.7928 18.20008,-18.2001 36.39898,-36.4027 54.59906,-54.60281 l -9.42992,-8.42456 c -16.14986,16.14987 -36.85046,36.64637 -53.00032,52.79617 -11.33523,-10.8298 -27.42858,-19.6148 -42.91653,-22.475 l 0,-77.21636 h -13.96138 v 75.59046 c -15.67307,0.3573 -32.26696,4.0223 -45.24114,12.9513 -18.20008,-18.2001 -36.39898,-34.88715 -54.59906,-53.0872 l -9.36567,9.05197 c 16.14986,16.14983 37.4892,37.42503 53.63906,53.57483 -10.82979,11.3352 -19.51732,27.0279 -22.37751,42.5159 h -77.2164 l -4.2e-4,13.6063 h 75.59055 c 0.35736,15.6731 5.53508,32.8224 14.46425,45.7965 -18.20008,18.2001 -36.40275,36.399 -54.60283,54.5991 l 9.42992,8.9272 c 16.14986,-16.1499 37.05077,-37.0469 53.20063,-53.1968 11.33512,10.83 27.02798,19.5149 42.5159,22.3753 v 77.2163 h 13.6063 v -75.5905 c 15.67303,-0.3574 32.82244,-4.0206 45.79654,-12.9498 18.20008,18.2001 36.39897,35.2651 54.59905,53.4652 l 9.42614,-8.3074 c -16.14986,-16.1499 -37.54966,-38.5474 -53.69952,-54.6973 10.8299,-11.3352 19.51814,-27.0317 22.37835,-42.5197 z m 42.73931,-78.5977 c -6.83632,-17.035 -13.49423,-34.16097 -24.18485,-49.23215 -7.85149,-13.27848 -18.7294,-24.63019 -29.21495,-35.81692 -12.83176,-11.4425 -25.94665,-22.4953 -41.2108,-30.5899 -13.02405,-8.26672 -27.86991,-13.44271 -42.29128,-18.64983 -16.62797,-4.36984 -33.33129,-8.26392 -50.60661,-8.54648 -15.35752,-1.45289 -30.93514,0.67512 -46.14865,2.58271 -16.79949,3.65539 -33.45013,7.7689 -48.97084,15.35996 -14.34326,5.67762 -27.25691,14.64579 -39.94623,23.25226 -13.30894,10.88379 -26.27728,22.10819 -36.66008,35.91812 -10.20234,11.57049 -17.637,25.42386 -25.03602,38.85313 -6.91723,15.7396 -13.37633,31.6281 -16.35786,48.6465 -3.83744,14.9412 -4.17252,30.6599 -4.66833,45.9845 0.98236,17.1646 2.44048,34.2537 7.51013,50.7708 3.36395,15.0549 10.20156,29.2124 16.71701,43.0919 8.6678,14.8477 17.7253,29.4122 29.74103,41.8275 9.83206,11.8868 22.35181,21.3971 34.45826,30.8058 14.46378,9.2943 29.14624,18.1594 45.48872,23.7665 14.1569,6.1276 29.6297,8.9174 44.6881,11.8044 17.10684,1.7148 34.21368,2.948 51.32053,0.5247 15.39572,-0.9674 30.44865,-5.5061 45.17645,-9.7702 16.02083,-6.2384 31.82297,-12.906 45.9651,-22.8316 13.27849,-7.8515 24.63022,-18.7294 35.81697,-29.215 11.4425,-12.8317 22.49529,-25.9466 30.58986,-41.2108 8.2667,-13.024 13.44274,-27.8699 18.64986,-42.2912 4.36984,-16.628 8.26391,-33.3313 8.54647,-50.6066 1.4529,-15.3575 -0.67512,-30.9351 -2.58271,-46.1486 -2.26309,-9.4265 -4.52619,-18.853 -6.78928,-28.2795 z"
       id="Ring2"
       inkscape:connector-curvature="0"
       sodipodi:nodetypes="ccccccccccccccccccccccccccccccccccccccccccccccccccccccccccccc" />
  </g>
</svg>
