<?xml version="1.0" encoding="UTF-8" standalone="no"?>
<svg
   xmlns:dc="http://purl.org/dc/elements/1.1/"
   xmlns:cc="http://creativecommons.org/ns#"
   xmlns:rdf="http://www.w3.org/1999/02/22-rdf-syntax-ns#"
   xmlns:svg="http://www.w3.org/2000/svg"
   xmlns="http://www.w3.org/2000/svg"
   xmlns:sodipodi="http://sodipodi.sourceforge.net/DTD/sodipodi-0.dtd"
   xmlns:inkscape="http://www.inkscape.org/namespaces/inkscape"
   width="1587.4016"
   height="1077.1654"
   version="1.1"
   id="svg8461"
   sodipodi:docname="woodlight_Rippe_36_v_1_Papier.svg"
   inkscape:version="0.92.2 (5c3e80d, 2017-08-06)">
  <metadata
     id="metadata8465">
    <rdf:RDF>
      <cc:Work
         rdf:about="">
        <dc:format>image/svg+xml</dc:format>
        <dc:type
           rdf:resource="http://purl.org/dc/dcmitype/StillImage" />
        <dc:title />
      </cc:Work>
    </rdf:RDF>
  </metadata>
  <sodipodi:namedview
     pagecolor="#ffffff"
     bordercolor="#666666"
     borderopacity="1"
     objecttolerance="10"
     gridtolerance="10"
     guidetolerance="10"
     inkscape:pageopacity="0"
     inkscape:pageshadow="2"
     inkscape:window-width="1366"
     inkscape:window-height="749"
     id="namedview8463"
     showgrid="false"
     inkscape:zoom="0.16556098"
     inkscape:cx="1290.054"
     inkscape:cy="83.912619"
     inkscape:window-x="-4"
     inkscape:window-y="-4"
     inkscape:window-maximized="1"
     inkscape:current-layer="g8457"
     inkscape:measure-start="251.988,127.595"
     inkscape:measure-end="301.104,151.086" />
  <desc
     id="desc4997">C:\Users\Andreas Reheis\Documents\Laser\woodlight\woodlight.dxf - scale = 1.000000, origin = (0.000000, 0.000000), method = file</desc>
  <defs
     id="defs5011">
    <marker
       id="DistanceX"
       orient="auto"
       refX="0"
       refY="0"
       style="overflow:visible">
      <path
         d="M 3,-3 -3,3 M 0,-5 V 5"
         style="stroke:#000000;stroke-width:0.5"
         id="path4999"
         inkscape:connector-curvature="0" />
    </marker>
    <pattern
       height="8"
       id="Hatch"
       patternUnits="userSpaceOnUse"
       width="8"
       x="0"
       y="0">
      <path
         d="M8 4 l-4,4"
         linecap="square"
         stroke="#000000"
         stroke-width="0.25"
         id="path5002" />
      <path
         d="M6 2 l-4,4"
         linecap="square"
         stroke="#000000"
         stroke-width="0.25"
         id="path5004" />
      <path
         d="M4 0 l-4,4"
         linecap="square"
         stroke="#000000"
         stroke-width="0.25"
         id="path5006" />
    </pattern>
    <symbol
       id="*MODEL_SPACE" />
    <symbol
       id="*PAPER_SPACE" />
  </defs>
  <g
     inkscape:groupmode="layer"
     inkscape:label="Rippe"
     id="g8457"
     transform="translate(1249.2295,-324.13114)">
    <path
       style="fill:none;stroke:#000000;stroke-width:2.5;stroke-miterlimit:4;stroke-dasharray:none"
       d="m -89.14524,438.69454 c 16.13845,-17.7338 28.085209,14.61017 21.259707,27.87812 -12.571047,25.70508 -44.699177,33.31188 -66.075307,50.52939 -27.4242,17.24328 -56.16487,41.09435 -90.83821,32.21032 -55.97758,-4.51754 -112.0356,-8.49859 -166.50524,-23.07181 -43.87459,-11.26673 -89.81986,-7.80175 -134.66599,-9.99008 -49.55687,7.10738 -100.06841,9.92319 -147.00296,28.81866 -49.29172,11.86342 -92.57331,38.99244 -137.08121,62.09453 -39.68064,30.52613 -82.30029,57.78251 -113.90806,97.28998 -37.11423,34.53907 -61.49679,79.42529 -88.92489,121.4057 -19.5775,46.07733 -43.3208,90.74946 -51.4555,140.6866 -15.4579,47.31405 -13.8259,97.28505 -18.1685,146.32715 37.4734,59.6275 74.947,119.2551 112.42062,178.8826 l 11.03516,-7.5711 -22.42459,-37.4087 -15.29197,-22.9773 c -4.10092,-6.162 8.20933,-14.2736 20.92728,-17.7055 16.93076,-12.2821 38.75972,4.9917 53.95311,14.2021 24.87012,19.5015 36.81981,49.9582 54.60829,75.2295 -24.00032,15.0833 -48.00073,30.1665 -72.00102,45.2497 22.65167,18.7767 -8.29135,25.3254 -21.6034,35.8967 -19.20488,22.129 -25.60858,-11.8498 -36.83408,-24.6945 -7.8317,-25.7791 -27.8829,3.5999 -42.9395,8.5516 -30.9722,18.6643 -72.7258,1.0104 -84.8588,-32.1441 -51.5879,-74.6729 -76.2218,-165.889 -80.9112,-255.8222 20.3,8.22 7.1609,38.7104 29.8475,45.3589 18.3887,9.2943 6.6114,36.7977 26.6644,44.5624 4.0007,-5.4711 -14.1441,-22.8626 -12.3467,-37.2019 -8.2532,-13.3306 -29.7443,-18.6665 -26.0122,-38.3774 -3.8899,-15.1782 -24.8787,-20.9905 -17.3753,-40.0416 1.4487,-29.9178 0.6467,-63.69969 3.4746,-91.24973 17.5331,9.9293 5.2569,37.99729 27.1244,44.82893 18.2276,9.6061 5.9841,36.9048 25.9018,45.01 4.0929,-5.4025 -13.7528,-23.1002 -11.7117,-37.4069 -8.0251,-13.46914 -29.4221,-19.1702 -25.3549,-38.81479 -4.7215,-14.88692 -23.3172,-21.57855 -11.7952,-40.00799 5.5817,-27.29877 11.1633,-54.59748 16.7449,-81.89619 13.6143,14.08292 -4.5592,37.71069 14.713,49.59014 15.29,13.81084 -3.3173,37.23937 13.9812,50.01325 5.3007,-4.22375 -7.6205,-25.78141 -2.1089,-39.14045 -4.4493,-15.03412 -23.7751,-25.84383 -14.9815,-43.875 0.4259,-14.94707 -17.6434,-25.75689 -4.9549,-41.06206 12.2243,-31.06182 24.4485,-62.12364 36.6728,-93.18546 15.9797,14.97681 -7.2549,38.69284 11.5173,53.06276 13.8097,15.29099 -7.0789,36.7106 8.8343,51.17376 5.7019,-3.66417 -4.9653,-26.42164 1.8736,-39.1525 -2.9009,-15.40793 -21.0301,-28.12283 -10.4523,-45.16867 2.6018,-15.16151 -17.0774,-28.86065 -0.6131,-42.25985 15.1508,-23.65189 31.3572,-52.69435 45.8522,-72.99793 0.52,15.79139 -17.6357,29.72821 -5.8723,45.87143 9.189,18.44146 -16.6903,33.45464 -5.2528,51.6644 6.4772,-1.9958 2.323,-26.78362 12.3335,-37.20639 1.3494,-15.62048 -12.6927,-32.74226 2.0794,-46.31562 2.5096,-16.03707 -0.3539,-31.10407 16.0111,-42.40259 27.9264,-28.79302 51.8013,-61.97739 82.4767,-87.79093 14.57069,18.64432 -15.3404,37.27694 -0.2752,56.22851 9.81336,18.11691 -15.538,34.0051 -3.4853,51.81365 6.4053,-2.21585 1.4069,-26.84733 11.05562,-37.60588 0.81523,-15.65745 -13.80342,-32.2897 0.49649,-46.35963 5.84451,-14.14251 -9.95681,-32.34934 11.63674,-38.94756 34.65041,-26.58724 67.97343,-55.28699 108.9234,-71.84862 18.87204,-12.19473 4.5377,20.70139 -5.54346,23.87777 -10.45714,15.10405 1.71272,38.79005 -18.56117,49.01352 -13.66969,13.72887 -0.37225,34.65055 1.28504,7.83326 11.00871,-11.35599 22.22453,-24.687 17.49897,-41.97418 0.10358,-16.29628 24.43081,-21.3439 18.51049,-39.20152 8.18972,-17.57005 33.28607,-19.72988 48.57963,-30.82485 42.28005,-11.00597 83.52212,-27.28537 126.47936,-34.85079 4.8415,19.95127 -16.29236,25.80066 -25.06893,38.69306 -2.85827,15.45553 -6.57275,32.35302 -23.35751,38.66642 -14.52937,15.58366 -3.78855,28.36377 3.10731,4.70154 14.97248,-7.5751 23.93431,-21.59449 24.20919,-38.4122 4.63866,-14.06536 27.18725,-15.14897 24.711,-32.92662 7.3589,-20.9094 33.75603,-11.18597 50.87422,-16.39252 41.78835,-3.20139 83.03428,-10.90031 124.80727,-14.08112 -9.24024,12.81626 -32.12796,12.75062 -32.68409,32.7173 -3.99836,20.21232 -33.65709,16.27795 -35.73409,37.68127 6.34642,2.37885 18.20836,-19.77914 32.50181,-21.9103 10.61516,-11.53857 9.96569,-33.67261 29.95344,-35.38717 10.18917,-14.18009 22.49049,-16.26942 40.51939,-14.66856 57.10904,-1.51629 114.35608,4.13729 170.21698,16.02087 -11.05711,14.25169 -36.53535,4.6201 -42.7398,25.47397 -9.29436,18.38857 -36.79762,6.61151 -44.56241,26.66444 5.47114,4.00053 22.86268,-14.14411 37.20194,-12.34682 13.33059,-8.25322 18.6665,-29.74426 38.37745,-26.01215 14.11024,-8.81102 22.56049,-16.44463 40.55697,-6.92646 53.12318,12.95788 103.64815,35.14369 153.0627,57.37797 25.931079,-0.1494 -3.86448,20.47387 -15.64591,12.30773 -21.15964,-3.77861 -32.18545,26.30738 -54.60651,15.86491 -19.26128,-2.08417 -27.27502,21.3747 -5.30981,5.90079 15.74564,1.491 33.16218,1.90922 43.69897,-12.58743 12.19415,-10.06026 27.84368,4.3766 39.32517,-7.02198 z"
       id="Rippe"
       inkscape:connector-curvature="0"
       sodipodi:nodetypes="cccccccccccccccscccccccccccccccccccccccccccccccccccccccccccccccccccccccccccccccccccccccccccc" />
    <path
       style="fill:none;stroke:#000000;stroke-width:2.5;stroke-miterlimit:4;stroke-dasharray:none"
       d="m -953.14694,1146.3445 c -18.8126,14.867 -25.3291,-18.9914 -16.4328,-30.9698 16.5916,-23.313 49.5299,-25.5828 73.4259,-39.087 29.8675,-12.544 62.1106,-31.3929 94.8728,-16.9776 54.4933,13.5788 109.1533,26.6413 160.5202,49.8956 41.4523,18.2656 87.3481,22.3337 131.2382,31.8005 50.0526,1.063 100.3479,6.5157 149.7342,-4.4792 50.56598,-3.6727 97.68979,-23.3863 145.36731,-38.927 44.1246,-23.6521 90.61601,-43.5993 128.239116,-77.4282 42.24631,-28.02964 73.61727,-68.34275 107.51952,-105.29263 26.82418,-42.27129 57.52949,-82.47735 73.69277,-130.42148 C 117.99144,740.29491 124.52407,690.72592 136.80008,643.04694 109.54391,578.11008 82.287536,513.1731 55.031066,448.2362 l -12.12133,5.67173 16.0291,40.56281 11.34334,25.16201 c 3.04208,6.7479 -10.42548,12.74511 -23.53262,14.05874 -18.70589,9.35905 -37.42834,-11.24093 -50.91773,-22.80398 -21.36,-23.29346 -28.18704,-55.2903 -41.6197,-83.12246 26.13736,-10.97083 52.27479,-21.94154 78.41213,-32.91227 -19.28926,-22.21685 12.30728,-23.63583 27.16406,-31.89662 22.55415,-18.70377 23.33538,15.86436 32.31779,30.36659 3.52629,26.71072 28.096824,0.99176 43.759064,-1.44027 33.5996,-13.36789 71.91841,10.85384 78.48669,45.54229 38.73036,82.08113 48.17126,176.09216 38.14328,265.58747 -18.68922,-11.41804 -0.75729,-39.35988 -22.05729,-49.61632 -16.6284,-12.16653 -0.52681,-37.3832 -19.04652,-48.31177 -4.83875,4.74605 10.22957,24.86181 6.11959,38.71657 5.97066,14.49729 26.30502,23.26387 19.41089,42.10317 1.36461,15.60919 21.12576,24.76395 10.61825,42.33773 -6.30446,29.28182 -11.01797,62.74287 -18.29738,89.46387 -15.68077,-12.65362 1.00506,-38.34604 -19.45694,-48.6497 -16.41865,-12.44791 0.10954,-37.38661 -18.22119,-48.62909 -4.91854,4.66335 9.80478,25.03248 5.45968,38.81532 5.72303,14.59681 25.90505,23.70834 18.6911,42.4276 2.23256,15.45732 19.48931,25.0897 5.11821,41.39529 -9.95545,26.02436 -19.9108,52.04867 -29.86615,78.07299 -11.13751,-16.11316 10.64325,-36.46373 -6.43559,-51.32483 -12.83515,-16.11776 9.34115,-36.20108 -5.64462,-51.62303 -5.91812,3.30354 3.31754,26.67859 -4.29726,38.96095 1.94,15.5582 19.24605,29.37258 7.63178,45.72983 -2.85584,14.67789 13.21048,28.28763 -1.80242,41.32063 -17.12247,28.6547 -34.24484,57.30935 -51.3673,85.96405 -13.32563,-17.3805 13.46297,-36.99344 -2.71674,-54.23024 -11.13344,-17.33692 12.96632,-35.06642 -0.3774,-51.92934 -6.22277,2.68607 0.5935,26.87759 -8.2285,38.32389 0.35139,15.6747 16.16637,31.17382 2.95232,46.26819 -5.03761,14.5349 12.14628,31.2577 -6.28138,41.7949 -18.802394,20.8669 -39.524684,46.8803 -57.134434,64.5506 2.06017,-15.6651 22.24423,-26.4571 13.26861,-44.3014 -6.06113,-19.6924 21.91868,-30.2878 13.60135,-50.118 -6.71584,0.9137 -6.65637,26.0471 -18.23147,34.6994 -3.87673,15.1918 7.18767,34.3729 -9.59878,45.3577 -5.08931,15.4138 -4.71927,30.746 -22.70664,39.2268 -32.24499,23.8576 -61.20821,52.7079 -95.67994,73.1779 -11.33785,-20.7695 21.20967,-34.279 9.43401,-55.4321 -6.73007,-19.4739 20.87148,-31.0187 11.8818,-50.5532 -6.68077,1.1425 -5.7629,26.2592 -17.03585,35.3017 -3.3557,15.3153 8.35737,34.1074 -8.04421,45.6591 -8.07092,13.0011 4.55246,33.5394 -17.82771,36.5307 -38.519676,20.5856 -76.073936,43.4718 -119.175346,53.1392 -20.6069,8.9565 -1.10374,-21.1641 9.36032,-22.6553 12.77855,-13.1982 4.63106,-38.5507 26.29981,-45.3339 15.72413,-11.3179 6.01366,-34.1267 0.009,-7.9379 -12.71203,9.4103 -25.95022,20.7355 -24.10484,38.5616 -2.75761,16.0616 -27.58227,17.0776 -24.65102,35.6613 -10.94329,16.0007 -36.05611,14.0422 -52.95323,22.4968 -43.50833,3.9693 -86.85196,13.3106 -130.46776,13.775 -1.5257,-20.4735 20.2788,-22.801 31.0389,-34.0909 5.3386,-14.7832 11.7568,-30.8496 29.346,-34.3435 16.8746,-13.0078 8.3598,-27.3673 -2.2996,-5.145 -16.0068,5.0341 -27.1333,17.4057 -30.1449,33.9539 -6.8687,13.1215 -29.2925,10.5163 -29.7462,28.4598 -10.6677,19.4308 -35.1276,5.5359 -52.8654,7.8834 -41.7515,-3.6508 -83.7007,-2.7759 -125.4337,-6.4445 11.2052,-11.1393 33.7763,-7.3449 37.5786,-26.9541 7.2385,-19.2906 35.8597,-10.5759 41.3967,-31.3547 -5.874,-3.3812 -21.188,16.5477 -35.6377,16.3212 -12.3535,9.6546 -15.3195,31.5986 -35.3195,30.0333 -12.3636,12.3302 -24.841,12.3871 -42.3681,7.8698 -56.5928,-7.81 -112.1534,-22.7164 -165.3312,-43.5438 13.2316,-12.2594 36.7998,1.3952 46.3195,-18.169 12.1666,-16.6282 37.3832,-0.5269 48.3118,-19.0465 -4.7461,-4.8386 -24.8619,10.2295 -38.7166,6.1197 -14.4973,5.9707 -23.2639,26.305 -42.1032,19.4108 -15.3574,6.394 -24.9386,12.5486 -41.1436,0.2251 -50.3017,-21.4412 -96.5361,-51.5635 -141.6671,-81.5527 -25.6088,-4.0781 7.1491,-19.5705 17.4423,-9.5938 20.2612,7.1761 36.0422,-20.7111 56.4619,-6.7546 18.6642,5.1949 30.3935,-16.6446 6.2004,-4.9567 -15.2922,-4.0369 -32.4078,-7.2875 -45.166,5.2984 -13.6706,7.9387 -26.7584,-8.8553 -39.9438,0.52 z"
       id="Rippe-8"
       inkscape:connector-curvature="0"
       sodipodi:nodetypes="cccccccccccccccscccccccccccccccccccccccccccccccccccccccccccccccccccccccccccccccccccccccccccc" />
  </g>
  <g
     inkscape:groupmode="layer"
     id="layer1"
     inkscape:label="Rohmaterial"
     sodipodi:insensitive="true"
     style="display:none">
    <rect
       transform="translate(1249.2295,-324.13114)"
       style="fill:none;fill-opacity:1;fill-rule:evenodd;stroke:#ff0000;stroke-width:1.6048404;stroke-miterlimit:4;stroke-dasharray:none;stroke-opacity:1"
       id="rect10299"
       width="1585.7968"
       height="1075.5605"
       x="-1248.4271"
       y="324.93356" />
  </g>
</svg>
